HIERARCHY
ROOT Hips
{
	OFFSET	0.00	0.00	0.00
	CHANNELS 6 Xposition Yposition Zposition Zrotation Xrotation Yrotation
	JOINT LeftUpLeg
	{
		OFFSET	 0.126116	-0.014019	-0.065224
		CHANNELS 3 Zrotation Xrotation Yrotation
		JOINT LeftLeg
		{
			OFFSET	 0.000000	 0.000000	 0.569914
			CHANNELS 3 Zrotation Xrotation Yrotation
			JOINT LeftFoot
			{
				OFFSET	 0.000000	 0.000000	 0.544423
				CHANNELS 3 Zrotation Xrotation Yrotation
				JOINT LeftToeBase
				{
					OFFSET	 0.000000	 0.000000	 0.207117
					CHANNELS 3 Zrotation Xrotation Yrotation
					End Site
					{
						OFFSET	 0.000000	 0.000000	 0.207117
					}
				}
			}
		}
	}
	JOINT RightUpLeg
	{
		OFFSET	-0.124023	-0.008373	-0.065224
		CHANNELS 3 Zrotation Xrotation Yrotation
		JOINT RightLeg
		{
			OFFSET	 0.000000	 0.000000	 0.570047
			CHANNELS 3 Zrotation Xrotation Yrotation
			JOINT RightFoot
			{
				OFFSET	 0.000000	 0.000000	 0.544354
				CHANNELS 3 Zrotation Xrotation Yrotation
				JOINT RightToeBase
				{
					OFFSET	 0.000000	 0.000000	 0.207540
					CHANNELS 3 Zrotation Xrotation Yrotation
					End Site
					{
						OFFSET	 0.000000	 0.000000	 0.207540
					}
				}
			}
		}
	}
	JOINT Spine
	{
		OFFSET	 0.000184	-0.007763	 0.117403
		CHANNELS 3 Zrotation Xrotation Yrotation
		JOINT Spine1
		{
			OFFSET	 0.000000	 0.000000	 0.137269
			CHANNELS 3 Zrotation Xrotation Yrotation
			JOINT Spine2
			{
				OFFSET	 0.000000	 0.000000	 0.156879
				CHANNELS 3 Zrotation Xrotation Yrotation
				JOINT LeftShoulder
				{
					OFFSET	 0.080501	-0.002496	 0.160144
					CHANNELS 3 Zrotation Xrotation Yrotation
					JOINT LeftArm
					{
						OFFSET	 0.000000	 0.000000	 0.164363
						CHANNELS 3 Zrotation Xrotation Yrotation
						JOINT LeftForeArm
						{
							OFFSET	 0.000000	 0.000000	 0.364576
							CHANNELS 3 Zrotation Xrotation Yrotation
							JOINT LeftHand
							{
								OFFSET	 0.000000	 0.000000	 0.360812
								CHANNELS 3 Zrotation Xrotation Yrotation
								JOINT LeftHandIndex1
								{
									OFFSET	 0.000000	 0.000000	 0.086006
									CHANNELS 3 Zrotation Xrotation Yrotation
									JOINT LeftHandIndex2
									{
										OFFSET	 0.000000	 0.000000	 0.047237
										CHANNELS 3 Zrotation Xrotation Yrotation
										JOINT LeftHandIndex3
										{
											OFFSET	-0.004284	-0.000551	 0.038165
											CHANNELS 3 Zrotation Xrotation Yrotation
											End Site
											{
												OFFSET	-0.004284	-0.000551	 0.038165
											}
										}
									}
								}
							}
						}
					}
				}
				JOINT Neck
				{
					OFFSET	 0.000000	 0.000000	 0.176489
					CHANNELS 3 Zrotation Xrotation Yrotation
					JOINT Head
					{
						OFFSET	 0.000000	-0.001747	 0.077940
						CHANNELS 3 Zrotation Xrotation Yrotation
						End Site
						{
							OFFSET	 0.000000	-0.001747	 0.077940
						}
					}
				}
				JOINT RightShoulder
				{
					OFFSET	-0.080363	 0.000306	 0.159706
					CHANNELS 3 Zrotation Xrotation Yrotation
					JOINT RightArm
					{
						OFFSET	 0.000000	 0.000000	 0.164196
						CHANNELS 3 Zrotation Xrotation Yrotation
						JOINT RightForeArm
						{
							OFFSET	 0.000000	 0.000000	 0.365611
							CHANNELS 3 Zrotation Xrotation Yrotation
							JOINT RightHand
							{
								OFFSET	 0.000000	 0.000000	 0.360648
								CHANNELS 3 Zrotation Xrotation Yrotation
								JOINT RightHandIndex1
								{
									OFFSET	 0.000000	 0.000000	 0.069977
									CHANNELS 3 Zrotation Xrotation Yrotation
									JOINT RightHandIndex2
									{
										OFFSET	 0.000000	 0.000000	 0.052305
										CHANNELS 3 Zrotation Xrotation Yrotation
										JOINT RightHandIndex3
										{
											OFFSET	 0.009002	-0.000782	 0.042196
											CHANNELS 3 Zrotation Xrotation Yrotation
											End Site
											{
												OFFSET	 0.009002	-0.000782	 0.042196
											}
										}
									}
								}
							}
						}
					}
				}
			}
		}
	}
}
MOTION
Frames:    8
Frame Time: 0.03333334
-0.459981	-0.032761	 1.274958	 179.281400	-1.217986	 3.856596	-20.655890	-1.922477	-178.608500	-1.059182	-14.774370	-0.413374	-1.637952	 72.701300	-15.423540	-2.385833	 28.452760	 0.000004	 42.130750	-2.187928	 172.134600	-1.306355	-3.756427	-0.185493	 9.510419	 64.079050	 8.785769	 2.384659	 28.388700	-0.000001	-10.981720	 6.156594	-3.976862	-3.102907	 1.131841	-15.207350	 13.458270	 6.233572	 23.020790	-91.776130	 78.527400	 180.000000	-44.909700	-10.210360	-20.241730	 3.803635	-0.051636	-0.511448	-1.733914	-16.334010	-3.078625	-4.130319	 21.525730	 0.991547	-5.167930	 0.731704	 3.519349	-1.378229	 35.397820	-2.634230	-1.416560	-1.488070	 0.698517	-7.368276	-19.418440	-5.809079	 89.782090	 78.203850	 180.000000	-17.688520	-7.933300	-7.855071	-13.641190	-4.538013	 30.706090	 15.432940	 0.128529	 90.759420	 5.716227	 19.173190	-3.685159	 5.027444	 0.246877	-9.377972	-2.350882	 35.473990	 5.254307
-0.461060	-0.032775	 1.275238	 179.288500	-2.489870	 4.592302	-9.468672	-0.982249	 179.888800	-6.236481	-16.144130	-1.898430	 19.833460	 73.716380	-33.481330	-2.385833	 28.452760	 0.000004	 43.966290	-0.275807	 170.748400	 1.652916	-0.514018	 0.001166	-1.419602	 60.384390	 17.715880	 2.384659	 28.388700	-0.000001	-9.804923	 7.438450	-5.783232	-3.377712	 4.374933	-14.069850	 14.415050	 0.420430	 24.434100	-91.776180	 78.527400	-180.000000	-69.297160	 0.701210	-13.160920	 1.861726	-1.439106	-20.481910	-0.313011	-19.488870	-1.827368	-4.130319	 21.525730	 0.991547	-5.167930	 0.731704	 3.519349	-1.378229	 35.397820	-2.634230	-2.424973	 0.092029	 1.316348	-9.038713	-26.065030	-10.037650	 89.782090	 78.203830	 180.000000	-26.547280	-7.974954	-11.565280	-14.917990	-7.000414	 38.008740	 18.573010	 11.221100	 124.113200	 5.716227	 19.173190	-3.685159	 5.027444	 0.246877	-9.377972	-2.350882	 35.473990	 5.254307
-0.461599	-0.032909	 1.274942	 179.404900	-2.724413	 5.204035	-5.750188	-1.971261	 178.922000	-8.156987	-18.890180	-2.842297	 27.251440	 75.184730	-39.610290	-2.385833	 28.452760	 0.000004	 43.567160	-2.716386	 170.350200	 2.648052	-5.407289	 0.106073	-5.513239	 61.667270	 21.299940	 2.384659	 28.388700	-0.000001	-9.536209	 7.677779	-6.830876	-3.629473	 5.699728	-13.881220	 14.796470	-1.708903	 25.176900	-91.776250	 78.527380	-179.999900	-77.753870	 6.020264	-2.752460	 0.524525	-2.186137	-41.037010	-0.450037	-18.996590	-1.943419	-4.130319	 21.525730	 0.991547	-5.167930	 0.731704	 3.519349	-1.378229	 35.397820	-2.634230	-2.837226	 0.730337	 1.740492	-9.995273	-28.446230	-12.055850	 89.782110	 78.203820	 180.000000	-29.777880	-8.435732	-16.350160	-13.493230	-9.395824	 51.354970	 19.788410	 12.139770	 130.647000	 5.716227	 19.173190	-3.685159	 5.027444	 0.246877	-9.377972	-2.350882	 35.473990	 5.254307
-0.462125	-0.033156	 1.274173	 179.526800	-2.766398	 5.785521	-3.110392	-3.552947	 178.118700	-9.746342	-22.471050	-3.976476	 34.338240	 77.082950	-45.737380	-2.385833	 28.452760	 0.000004	 42.921550	-5.315277	 170.224900	 3.401709	-10.671170	 0.348063	-8.756155	 63.390870	 24.233180	 2.384659	 28.388700	-0.000001	-9.495417	 7.721908	-7.787316	-3.991488	 6.838071	-13.775630	 15.131060	-3.357413	 25.812100	-91.776210	 78.527400	-180.000000	-83.019840	 11.117160	 8.906395	-0.776754	-2.369457	-62.976860	-1.010246	-18.094030	-2.165910	-4.130319	 21.525730	 0.991547	-5.167930	 0.731704	 3.519349	-1.378229	 35.397820	-2.634230	-3.165707	 1.230930	 2.133338	-10.861280	-30.208480	-13.774230	 89.782060	 78.203870	-180.000000	-30.866060	-8.771913	-20.767380	-10.482460	-11.585190	 68.931800	 20.360120	 11.447390	 129.698500	 5.716227	 19.173190	-3.685159	 5.027444	 0.246877	-9.377972	-2.350882	 35.473990	 5.254307
-0.462561	-0.033570	 1.272658	 179.744100	-2.466507	 5.792510	-4.019963	-5.448264	 178.435700	-9.997412	-26.369400	-4.732821	 39.823730	 79.204620	-51.390170	-2.385833	 28.452760	 0.000004	 42.016460	-8.236398	 170.932600	 3.541726	-17.287900	 0.600240	-9.209496	 67.309470	 24.535590	 2.384659	 28.388700	-0.000001	-10.128770	 7.324351	-7.911973	-4.482523	 7.432391	-13.762800	 15.268770	-3.633646	 26.011040	-91.776180	 78.527420	-180.000000	-78.893400	 14.961470	 20.428710	-1.853887	-2.748543	-87.287780	-0.902681	-18.258600	-2.173094	-4.130319	 21.525730	 0.991547	-5.167930	 0.731704	 3.519349	-1.378229	 35.397820	-2.634230	-3.156683	 1.195764	 2.266978	-10.867500	-30.035610	-14.173150	 89.782050	 78.203870	-180.000000	-23.402910	-5.949205	-21.880720	-6.167395	-12.108680	 89.496070	 18.060840	 13.862400	 109.177700	 5.716227	 19.173190	-3.685159	 5.027444	 0.246877	-9.377972	-2.350882	 35.473990	 5.254307
-0.463112	-0.034136	 1.270539	 179.949600	-2.072608	 5.770063	-5.017506	-7.621858	 178.885700	-10.317690	-30.895350	-5.635979	 50.053360	 81.474510	-61.877970	-2.385833	 28.452760	 0.000004	 41.298340	-10.853700	 171.922100	 3.677190	-23.445600	 0.857589	-9.062466	 71.232830	 24.151660	 2.384659	 28.388700	-0.000001	-10.926020	 6.799526	-8.046757	-5.158840	 8.179717	-13.687580	 15.436870	-3.928917	 26.186340	-91.776180	 78.527400	-180.000000	-70.426210	 23.234690	 29.790840	-3.032832	-2.674362	-111.448400	-0.768576	-18.470900	-2.168469	-4.130319	 21.525730	 0.991547	-5.167930	 0.731704	 3.519349	-1.378229	 35.397820	-2.634230	-3.130942	 1.133259	 2.379924	-10.828520	-29.773200	-14.488040	 89.782160	 78.203900	 179.999900	-14.276690	 4.498989	-16.652830	-2.361270	-11.201500	 108.434600	 13.776890	 18.872450	 81.509480	 5.716227	 19.173190	-3.685159	 5.027444	 0.246877	-9.377972	-2.350882	 35.473990	 5.254307
-0.463776	-0.034793	 1.268133	-179.768500	-1.675582	 5.666032	-5.597696	-9.665906	 179.422200	-11.028160	-35.214080	-6.744283	 66.000890	 82.974760	-77.907560	-2.385833	 28.452760	 0.000004	 40.680760	-12.970990	 173.093800	 3.944370	-28.865690	 1.169642	-9.225467	 74.732900	 24.030600	 2.384659	 28.388700	-0.000001	-11.858920	 6.327289	-8.044487	-5.866134	 8.816399	-13.651670	 15.499100	-4.095399	 26.292670	-91.776230	 78.527400	-179.999900	-52.817710	 39.392780	 27.524740	-3.773458	-2.221868	-128.917800	-0.768643	-18.435480	-2.174761	-4.130319	 21.525730	 0.991547	-5.167930	 0.731704	 3.519349	-1.378229	 35.397820	-2.634230	-3.093247	 0.903281	 2.148802	-10.744880	-29.463770	-14.107690	 89.782120	 78.203930	 180.000000	-12.904090	 25.246160	-1.756569	-1.025454	-9.710706	 117.627600	 6.450104	 26.198660	 53.106490	 5.716227	 19.173190	-3.685159	 5.027444	 0.246877	-9.377972	-2.350882	 35.473990	 5.254307
-0.464896	-0.035725	 1.264914	-179.442400	-1.147917	 5.539604	-6.188493	-11.990010	-179.863600	-12.036540	-40.172450	-8.203851	 92.522470	 83.640720	-104.555300	-2.385833	 28.452760	 0.000004	 40.205170	-15.110790	 174.711400	 4.305740	-34.610760	 1.581643	-8.437592	 78.662980	 22.840900	 2.384659	 28.388700	-0.000001	-13.034940	 5.676994	-8.087275	-6.813102	 9.683286	-13.516830	 15.595290	-4.341779	 26.393690	-91.776230	 78.527380	-180.000000	 3.809147	 57.056440	-23.068990	-3.779157	-2.179125	-129.582900	-0.770208	-18.396530	-2.182453	-4.130319	 21.525730	 0.991547	-5.167930	 0.731704	 3.519349	-1.378229	 35.397820	-2.634230	-3.049898	 0.626871	 1.866995	-10.645840	-29.090460	-13.634910	 89.782100	 78.203890	 180.000000	-37.659900	 44.216560	 39.483880	-3.075144	-9.467292	 107.661500	-8.030077	 26.475020	 31.030670	 5.716227	 19.173190	-3.685159	 5.027444	 0.246877	-9.377972	-2.350882	 35.473990	 5.254307
